<?xml version="1.0" encoding="utf-8"?>
<!-- Generator: Adobe Illustrator 23.1.0, SVG Export Plug-In . SVG Version: 6.00 Build 0)  -->
<svg version="1.1" id="Layer_2" xmlns="http://www.w3.org/2000/svg" xmlns:xlink="http://www.w3.org/1999/xlink" x="0px" y="0px"
	 viewBox="0 0 400 400" style="enable-background:new 0 0 400 400;" xml:space="preserve">
<style type="text/css">
	.st0{fill-rule:evenodd;clip-rule:evenodd;fill:#D60000;}
	.st1{fill:#D60000;}
</style>
<g>
	<g>
		<g>
			<g>
				<path class="st0" d="M324.2,158.4c-0.6-0.6-14-15.7-35.8-30.9c-20.2-14.1-51.8-31-87-31s-66.7,16.9-87,31
					c-21.8,15.2-35.2,30.3-35.8,30.9c-1.4,1.5-1.4,3.9,0,5.4c0.6,0.6,14,15.7,35.8,30.9c20.2,14.1,51.8,31,87,31s66.7-16.9,87-31
					c21.8-15.2,35.2-30.3,35.8-30.9C325.6,162.3,325.6,160,324.2,158.4z M283.9,188.1L283.9,188.1c-18.6,13-47.2,28.5-79,29.5
					l32.7-45.5l-36.2,20.6L166,172.1l32.7,45.5c-31.9-0.9-60.7-16.4-79.4-29.4c-11.5-8-22.2-17.1-32-27.1c9.8-10,20.4-19,31.8-27
					c18.9-13.2,48-28.9,80.2-29.6l-33.4,50.9l35.5-15l34.4,15.4l-32.5-51.3c32.3,0.6,61.5,16.2,80.4,29.4c11.5,8,22.2,17.1,32,27.1
					C306,171.1,295.3,180.1,283.9,188.1z"/>
			</g>
		</g>
		<g>
			<polygon class="st0" points="164.6,163.4 201.6,184 237.5,163.9 201.6,147.8 			"/>
		</g>
	</g>
	<g>
		<g>
			<path class="st1" d="M363.4,158.2c-0.3-0.3-3.2-3.6-8.3-8.6l-8.5-37.4l-5.2,24.8c-2-1.8-4.2-3.6-6.5-5.5L307.7,77l-6.5,30.5
				c-1.6-1-3.3-2-5-2.9l-27.4-52.6l-4.5,37.2c-1.7-0.7-3.3-1.3-5-1.9l-36.9-50.3l4.5,41.7c-1.8-0.3-3.5-0.6-5.3-0.8l-43.1-40.9
				l8.3,40.3c-1.2,0.1-2.4,0.3-3.6,0.4l-61.1-29.4l12.5,42.6c0,0,0,0,0,0L50.4,67l36.4,50.2l-60.2-6.3l29.6,30.8
				c-10.3,9.3-16.2,16-16.6,16.4c-1.8,2-1.8,5.1,0,7.1c0.7,0.8,18.4,20.7,47.2,40.8C113.5,224.7,155,247,201.5,247
				s88-22.3,114.7-40.9c28.8-20.1,46.5-40,47.2-40.8C365.2,163.2,365.2,160.2,363.4,158.2z M310.2,197.3L310.2,197.3
				c-25.5,17.8-65,39-108.8,39c-43.6,0-83.1-21.1-108.5-38.9c-15.1-10.6-29.3-22.5-42.2-35.7c12.9-13.2,27-25.1,42-35.6
				c25.5-17.8,65-39,108.8-39c43.6,0,83.1,21.1,108.5,38.9c15.1,10.6,29.3,22.5,42.2,35.7C339.4,174.9,325.3,186.8,310.2,197.3z"/>
		</g>
	</g>
	<g>
		<g>
			<path class="st1" d="M39.9,315.6c0,1.7,0.5,3.1,1.6,4.3c0.6,0.6,1.1,1.1,1.7,1.4l-6.8,5h0l0,0l-0.1,0l-0.2-0.1l-0.3-0.2
				c-0.3-0.2-0.5-0.3-0.8-0.5c-0.3-0.2-0.6-0.5-0.9-0.7c-0.7-0.7-1.3-1.5-1.7-2.3c-0.5-1-0.7-2.1-0.7-3.2v-41.5
				c0-2.6-1.1-4.6-3.2-5.9l6.7-5l0,0h0c2.6,2,4.2,4.4,4.6,7.2l0.1,0v4.3c11.1-9.1,16.8-13.7,17.1-13.7c5.1,2.7,8.8,6.4,10.8,10.9
				c9.3-7.3,14.1-10.9,14.4-10.9c2.8,1.7,5.1,3.7,7.1,6.1c2.8,3.5,4.6,8,5.2,13.6c0.1,1.2,0.2,2.4,0.2,3.6c0,5.4-1.4,10.3-4.3,14.6
				c-3.5,5.3-5.4,8.2-5.8,8.8c-0.8,1.6-1.3,3.1-1.3,4.5v0.5c0.1,1,0.4,1.8,1,2.5c0.5,0.7,1.2,1,2.1,1h0.1c1.3,0,2.3-0.5,3-1.4
				c0.5-0.6,0.8-1.3,0.8-2c0-0.5-0.1-0.9-0.3-1.4l0,0c0.1,0.1,0.1,0.1,0.2,0.2c0.2,0.2,0.4,0.4,0.5,0.6c0.2,0.3,0.5,0.7,0.6,1
				c0.2,0.4,0.4,0.8,0.5,1.1c0.3,1,0.5,1.9,0.5,2.8c0,1.2-0.3,2.3-0.9,3.2c-1,1.7-2.7,2.7-5.2,3.2c-0.5,0.1-1,0.1-1.5,0.1
				c-1.2,0-2.3-0.3-3.3-0.9c-1.7-1-4.3-2.9-7.8-5.7l2-2.6c1.4-1.7,2.8-4.2,4.3-7.4c3.1-5.8,4.8-10.1,5.1-13c0.2-1.3,0.2-2.6,0.2-3.8
				c0-3.3-0.5-6.3-1.5-9.2c-1.6-4.5-4.3-8.2-8.2-11.2l-6.7,5c0.8,2.6,1.3,5.3,1.3,8.1c0,1.5-0.1,3.1-0.4,4.8
				c-0.8,5.2-2.5,9.8-5.2,14c-1.5,2.3-3,4.2-4.5,5.7c-0.2,0.2-0.2,0.3-0.2,0.5c0,0.7,0.6,1.7,1.9,3.2c0.6,0.7,1.3,1.4,2.2,2.3
				c0.3,0.3,0.7,0.6,1,1l0.5,0.4c0.1,0.1,0.2,0.2,0.4,0.3l-9.2,6.9c-0.9-0.8-2-2.3-3.4-4.2c-1.2-1.8-1.8-2.9-1.8-3.5
				c0-0.1,0-0.2,0.1-0.3c1.8-1.9,3.3-3.8,4.4-5.8c2.8-4.6,4.4-9.3,5-14.1c0.2-1.3,0.2-2.6,0.2-3.9c0-3.2-0.5-6.3-1.5-9.2
				c-1.6-4.5-4.3-8.2-8.2-11.2L39.9,282V315.6z"/>
		</g>
		<g>
			<path class="st1" d="M151.5,283.5c1,2.7,1.5,5.5,1.6,8.3v0.5c0,2.8-0.5,5.4-1.4,7.8c-2.5,7-10.4,15.6-23.8,26
				c-0.2,0-1.4-0.4-3.4-1.2c-2.2-0.8-3.6-1.4-4.2-1.6c-4.6-2.2-8.5-4.9-11.7-8.1c-3.6-3.5-6-7.5-7.4-11.8c-0.9-2.8-1.3-5.5-1.3-8
				c0-0.6,0-1.3,0.1-1.9c0.3-3,1.3-6.2,3.1-9.5c1.5-2.9,4.1-6,7.7-9.4c1.3-1.2,3.5-2.9,6.7-5.1c3.2-2.2,5.2-3.4,5.9-3.6
				c0.2,0,0.4,0,0.6,0c1.1,0,3.1,0.3,6.2,0.8c3.8,0.7,7.5,2.2,11.1,4.5C146.2,274.5,149.7,278.6,151.5,283.5z M143.6,303.4
				c0.4-1.9,0.6-3.7,0.6-5.4c0-3.4-0.8-6.7-2.3-9.7c-2.8-5.7-7.8-10.2-15-13.6c-0.7-0.3-1.6-0.6-2.9-0.8c-0.5-0.1-1.1-0.1-1.7-0.1
				c-2,0-4.1,0.4-6.3,1.2c-1.8,0.6-3.3,1.7-4.6,3.2c-1.3,1.5-2.2,3.1-2.7,5c-0.5,2-0.8,3.9-0.8,5.7c0,1.3,0.1,2.5,0.4,3.7
				c0.6,2.8,1.9,5.7,3.9,8.9c4.2,6.7,11,11.7,20.5,15.2C139.1,311.6,142.8,307.1,143.6,303.4z"/>
		</g>
		<g>
			<path class="st1" d="M192.3,305.4c3.1,2.4,5.6,6.4,7.5,11.9c1.4,4.1,3.1,6.1,5.2,6.1c0.8,0,1.6-0.3,2.5-0.9
				c-0.1,3.9-1.4,6.2-3.8,6.9c-1,0.3-1.9,0.5-2.8,0.5c-1.4,0-2.6-0.3-3.9-1c-2.1-1.1-4.2-4.2-6.6-9.4c-2.3-5.2-6.2-8.9-11.6-11.4
				c-0.2,2.8-0.8,5.2-1.8,7.2c-1.4,2.8-2.6,4.8-3.6,5.9c-1.6,1.8-3.8,2.8-6.5,3.2c0.7-0.2,1.4-0.9,2.1-1.9c1-1.6,1.5-3.7,1.5-6.4
				c0-0.7,0-1.4-0.1-2.1l-0.7-7.2h-1.3c-3.6,0-7.3,0.4-11.2,1.3c2.8-3,6.8-5.2,12-6.6l-0.7-7.3c-0.1-0.8-0.1-1.6-0.1-2.6
				c0-1.9,0.2-4.3,0.6-7.1c0.6-4.2,2.9-7.7,6.8-10.6l-5.7-0.8c-1.9-0.4-4-1.2-6.3-2.5c-2-1.1-3.8-2.5-5.3-4l-4.5-6.8
				c0.2,0.4,1.6,1.4,4.3,3c2.7,1.6,10.6,2.6,23.7,3.1c3.1,0.4,5.7,1,7.9,1.7c4.3,1.4,7.7,3.7,10.2,6.8c2.6,3.2,3.9,7,4,11.3v0.4
				c0,4.3-1.1,7.9-3.3,10.9C199.7,299,196.8,301.8,192.3,305.4z M189.6,303.7c2.7-2.4,4.5-5.1,5.4-8.1c0.5-1.7,0.8-3.4,0.8-5.2
				c0-1.2-0.1-2.4-0.4-3.6c-0.6-3.1-1.9-5.6-3.9-7.7c-2.2-2.2-4.9-3.6-8.2-4.1l-3.6-0.5c-1.1,2.1-1.6,6.3-1.6,12.8
				c0,3.1,0.1,6.7,0.4,10.9l0.2,2.4C182.5,300.7,186.2,301.7,189.6,303.7z"/>
		</g>
		<g>
			<path class="st1" d="M258.4,286.9c0.4,2.7,0.6,5.2,0.6,7.7c0,6.1-1.2,11.3-3.6,15.7c-0.9,1.8-2.3,3.5-4,5.2
				c-1.1,1.1-2.7,2.5-4.9,4.4c-0.1,0.1-0.5,0.4-1.2,1c-0.4,0.3-0.7,0.6-1,0.9l-1.1,1c-1.9,1.7-3,2.5-3.1,2.5h0
				c-1.7-1.2-4.1-2.2-7.3-3c-3.1-0.8-6.4-1.2-9.8-1.2c-3.6,0-7.3,0.4-11.2,1.3c3.1-3.3,7.5-5.6,13.2-6.9c0.2-0.9,0.4-2,0.4-3.1
				c0-0.6,0-1.2-0.1-1.9l-2-18.4c-0.1-0.8-0.2-1.7-0.2-2.6c0-1.3,0.1-2.8,0.4-4.3c0.4-2.2,1.1-4.3,2.1-6c1.2-2.2,2.9-4.1,4.9-5.4
				c-2.9-0.2-6.6-1.2-11.1-3c-4.5-1.8-8.1-5.5-10.6-11c0.2,0.4,1.5,1.2,3.9,2.4c2.4,1.2,5.2,2,8.6,2.4c1.3,0.2,5.1,0.4,11.4,0.6
				c6.3,0.2,11.3,1.4,15,3.7c2.7,1.6,4.9,3.7,6.8,6.4C256.4,278.1,257.8,282,258.4,286.9z M249.6,309.8c0.3-1.7,0.5-3.6,0.5-5.7
				c0-3.4-0.4-7.4-1.2-12.1l-0.3-1.8l-0.3-1.9c-0.3-1.5-0.6-2.7-0.9-3.8c-0.8-2.8-1.9-5-3.4-6.6c-0.8-0.8-1.8-1.5-2.9-2.2
				c-1.2-0.7-2.4-1-3.4-1.1l-2.8-0.4c-1.3,2.4-2,5.6-2,9.6c0,0.7,0,1.5,0,2.2l0.4,4.8l0.4,4.8l0.2,2l0.2,2c0.1,1.3,0.2,2.5,0.2,3.5
				v0.6c-0.1,3.1-0.8,5.7-2,7.8c-0.8,1.5-1.5,2.5-2,3.1c0.5,0,1,0,1.5,0c4.2,0,8.4,0.8,12.8,2.5
				C247.6,314.7,249.2,312.3,249.6,309.8z"/>
		</g>
		<g>
			<path class="st1" d="M317.1,283.5c1,2.7,1.5,5.5,1.6,8.3v0.5c0,2.8-0.5,5.4-1.4,7.8c-2.5,7-10.4,15.6-23.8,26
				c-0.2,0-1.4-0.4-3.4-1.2c-2.2-0.8-3.6-1.4-4.2-1.6c-4.6-2.2-8.5-4.9-11.7-8.1c-3.6-3.5-6-7.5-7.4-11.8c-0.9-2.8-1.3-5.5-1.3-8
				c0-0.6,0-1.3,0.1-1.9c0.3-3,1.3-6.2,3.1-9.5c1.5-2.9,4.1-6,7.7-9.4c1.3-1.2,3.5-2.9,6.7-5.1c3.2-2.2,5.1-3.4,5.9-3.6
				c0.2,0,0.4,0,0.6,0c1.1,0,3.1,0.3,6.2,0.8c3.8,0.7,7.5,2.2,11.1,4.5C311.9,274.5,315.3,278.6,317.1,283.5z M309.3,303.4
				c0.4-1.9,0.6-3.7,0.6-5.4c0-3.4-0.8-6.7-2.3-9.7c-2.8-5.7-7.8-10.2-15-13.6c-0.7-0.3-1.6-0.6-3-0.8c-0.5-0.1-1.1-0.1-1.7-0.1
				c-2,0-4.1,0.4-6.3,1.2c-1.8,0.6-3.3,1.7-4.6,3.2c-1.3,1.5-2.2,3.1-2.7,5c-0.5,2-0.8,3.9-0.8,5.7c0,1.3,0.1,2.5,0.4,3.7
				c0.6,2.8,1.9,5.7,3.9,8.9c4.2,6.7,11,11.7,20.5,15.2C304.8,311.6,308.4,307.1,309.3,303.4z"/>
		</g>
		<g>
			<path class="st1" d="M358,305.4c3.1,2.4,5.6,6.4,7.5,11.9c1.4,4.1,3.1,6.1,5.2,6.1c0.8,0,1.6-0.3,2.5-0.9
				c-0.1,3.9-1.4,6.2-3.8,6.9c-1,0.3-1.9,0.5-2.8,0.5c-1.4,0-2.6-0.3-3.9-1c-2.1-1.1-4.2-4.2-6.6-9.4c-2.3-5.2-6.2-8.9-11.6-11.4
				c-0.2,2.8-0.8,5.2-1.8,7.2c-1.4,2.8-2.6,4.8-3.6,5.9c-1.6,1.8-3.8,2.8-6.5,3.2c0.7-0.2,1.4-0.9,2.1-1.9c1-1.6,1.5-3.7,1.5-6.4
				c0-0.7,0-1.4-0.1-2.1l-0.7-7.2h-1.3c-3.6,0-7.3,0.4-11.2,1.3c2.8-3,6.8-5.2,12-6.6l-0.7-7.3c-0.1-0.8-0.1-1.6-0.1-2.6
				c0-1.9,0.2-4.3,0.6-7.1c0.6-4.2,2.9-7.7,6.8-10.6l-5.7-0.8c-1.9-0.4-4-1.2-6.3-2.5c-2-1.1-3.8-2.5-5.3-4L320,260
				c0.2,0.4,1.6,1.4,4.3,3c2.7,1.6,10.6,2.6,23.7,3.1c3.1,0.4,5.7,1,7.9,1.7c4.3,1.4,7.7,3.7,10.2,6.8c2.6,3.2,3.9,7,4,11.3v0.4
				c0,4.3-1.1,7.9-3.3,10.9C365.3,299,362.4,301.8,358,305.4z M355.3,303.7c2.7-2.4,4.5-5.1,5.4-8.1c0.5-1.7,0.8-3.4,0.8-5.2
				c0-1.2-0.1-2.4-0.4-3.6c-0.6-3.1-1.9-5.6-3.9-7.7c-2.2-2.2-4.9-3.6-8.2-4.1l-3.6-0.5c-1.1,2.1-1.6,6.3-1.6,12.8
				c0,3.1,0.1,6.7,0.4,10.9l0.2,2.4C348.2,300.7,351.8,301.7,355.3,303.7z"/>
		</g>
	</g>
	<g>
		<g>
			<path class="st1" d="M37.8,353.2h-8.4v8.2h9.7v1.4H27.9v-20.1H39v1.4h-9.6v7.6h8.4V353.2z"/>
		</g>
		<g>
			<path class="st1" d="M54.7,344.2h-6.2v18.6h-1.5v-18.6h-6.1v-1.4h13.8V344.2z"/>
		</g>
		<g>
			<path class="st1" d="M70.9,362.8h-1.5v-9.6H59.1v9.6h-1.5v-20.1h1.5v9h10.3v-9h1.5V362.8z"/>
		</g>
		<g>
			<path class="st1" d="M85.4,353.2H77v8.2h9.7v1.4H75.5v-20.1h11.1v1.4H77v7.6h8.4V353.2z"/>
		</g>
		<g>
			<path class="st1" d="M96.6,354.5h-5.2v8.4h-1.5v-20.1h5.8c1.9,0,3.4,0.5,4.5,1.6c1.1,1,1.6,2.5,1.6,4.3c0,1.3-0.3,2.4-1,3.4
				c-0.7,1-1.6,1.7-2.7,2l4.5,8.5v0.2h-1.6L96.6,354.5z M91.3,353H96c1.3,0,2.3-0.4,3.1-1.2s1.2-1.9,1.2-3.1c0-1.4-0.4-2.5-1.2-3.3
				c-0.8-0.8-1.9-1.2-3.4-1.2h-4.3V353z"/>
		</g>
		<g>
			<path class="st1" d="M115.8,353.2h-8.4v8.2h9.7v1.4h-11.2v-20.1H117v1.4h-9.6v7.6h8.4V353.2z"/>
		</g>
		<g>
			<path class="st1" d="M132.6,342.8v13.7c0,1.4-0.3,2.5-0.8,3.5c-0.5,1-1.3,1.8-2.2,2.3c-1,0.5-2.1,0.8-3.3,0.8
				c-1.9,0-3.4-0.6-4.5-1.7c-1.1-1.2-1.7-2.7-1.8-4.8v-13.8h1.5v13.6c0,1.7,0.4,3,1.3,3.9c0.9,0.9,2,1.4,3.5,1.4s2.6-0.5,3.5-1.4
				s1.3-2.2,1.3-3.9v-13.6H132.6z"/>
		</g>
		<g>
			<path class="st1" d="M138.9,342.8l6.6,17.7l6.6-17.7h2v20.1h-1.5v-8.7l0.1-9l-6.7,17.7h-1.2l-6.7-17.6l0.1,8.8v8.8h-1.5v-20.1
				H138.9z"/>
		</g>
		<g>
			<path class="st1" d="M177.6,356.6c-0.2,2.1-0.9,3.7-2,4.9c-1.1,1.1-2.7,1.7-4.6,1.7c-1.3,0-2.5-0.4-3.5-1.1
				c-1-0.7-1.8-1.8-2.4-3.2c-0.6-1.4-0.8-2.9-0.9-4.7v-2.6c0-1.8,0.3-3.4,0.8-4.7c0.6-1.4,1.4-2.4,2.4-3.2c1-0.7,2.3-1.1,3.6-1.1
				c1.9,0,3.4,0.6,4.6,1.7c1.1,1.2,1.8,2.8,1.9,4.8H176c-0.4-3.4-2-5.1-5-5.1c-1.6,0-2.9,0.7-3.9,2c-1,1.4-1.4,3.2-1.4,5.6v2.5
				c0,2.3,0.5,4.2,1.4,5.5c0.9,1.4,2.2,2.1,3.8,2.1c1.6,0,2.8-0.4,3.6-1.3c0.8-0.9,1.3-2.1,1.5-3.8H177.6z"/>
		</g>
		<g>
			<path class="st1" d="M182.8,361.4h8.9v1.4h-10.4v-20.1h1.5V361.4z"/>
		</g>
		<g>
			<path class="st1" d="M204.5,357.2h-8.2l-1.8,5.6h-1.6l6.8-20.1h1.4l6.8,20.1h-1.6L204.5,357.2z M196.8,355.8h7.2l-3.6-10.9
				L196.8,355.8z"/>
		</g>
		<g>
			<path class="st1" d="M220.7,357.9c0-1.1-0.3-2-1-2.6c-0.7-0.6-2-1.3-3.8-1.8c-1.9-0.6-3.2-1.2-4.1-1.9c-1.2-1-1.8-2.3-1.8-3.8
				c0-1.5,0.6-2.8,1.7-3.7c1.1-1,2.6-1.4,4.3-1.4c1.2,0,2.3,0.3,3.2,0.8c0.9,0.5,1.7,1.2,2.2,2.2c0.5,0.9,0.8,1.9,0.8,3.1h-1.5
				c0-1.4-0.4-2.5-1.3-3.3s-2-1.3-3.4-1.3c-1.4,0-2.5,0.3-3.3,1c-0.8,0.7-1.2,1.6-1.2,2.7c0,1,0.4,1.9,1.1,2.5
				c0.7,0.6,1.9,1.2,3.5,1.7c1.6,0.5,2.8,1,3.7,1.5c0.8,0.5,1.5,1.2,1.9,1.9c0.4,0.7,0.6,1.6,0.6,2.6c0,1.6-0.6,2.8-1.7,3.8
				c-1.1,1-2.6,1.4-4.5,1.4c-1.3,0-2.4-0.3-3.5-0.8c-1.1-0.5-1.9-1.2-2.4-2.1c-0.5-0.9-0.8-2-0.8-3.1h1.5c0,1.4,0.5,2.5,1.4,3.3
				s2.2,1.2,3.8,1.2c1.4,0,2.5-0.3,3.4-1C220.3,360,220.7,359.1,220.7,357.9z"/>
		</g>
		<g>
			<path class="st1" d="M235.7,357.9c0-1.1-0.3-2-1-2.6c-0.7-0.6-2-1.3-3.8-1.8c-1.9-0.6-3.2-1.2-4.1-1.9c-1.2-1-1.8-2.3-1.8-3.8
				c0-1.5,0.6-2.8,1.7-3.7c1.1-1,2.6-1.4,4.3-1.4c1.2,0,2.3,0.3,3.2,0.8c0.9,0.5,1.7,1.2,2.2,2.2c0.5,0.9,0.8,1.9,0.8,3.1h-1.5
				c0-1.4-0.4-2.5-1.3-3.3s-2-1.3-3.4-1.3c-1.4,0-2.5,0.3-3.3,1c-0.8,0.7-1.2,1.6-1.2,2.7c0,1,0.4,1.9,1.1,2.5
				c0.7,0.6,1.9,1.2,3.5,1.7c1.6,0.5,2.8,1,3.7,1.5c0.8,0.5,1.5,1.2,1.9,1.9c0.4,0.7,0.6,1.6,0.6,2.6c0,1.6-0.6,2.8-1.7,3.8
				c-1.1,1-2.6,1.4-4.5,1.4c-1.3,0-2.4-0.3-3.5-0.8c-1.1-0.5-1.9-1.2-2.4-2.1c-0.5-0.9-0.8-2-0.8-3.1h1.5c0,1.4,0.5,2.5,1.4,3.3
				s2.2,1.2,3.8,1.2c1.4,0,2.5-0.3,3.4-1C235.3,360,235.7,359.1,235.7,357.9z"/>
		</g>
		<g>
			<path class="st1" d="M242.3,362.8h-1.5v-20.1h1.5V362.8z"/>
		</g>
		<g>
			<path class="st1" d="M259.9,356.6c-0.2,2.1-0.9,3.7-2,4.9c-1.1,1.1-2.7,1.7-4.6,1.7c-1.3,0-2.5-0.4-3.5-1.1
				c-1-0.7-1.8-1.8-2.4-3.2c-0.6-1.4-0.8-2.9-0.9-4.7v-2.6c0-1.8,0.3-3.4,0.8-4.7c0.6-1.4,1.4-2.4,2.4-3.2c1-0.7,2.3-1.1,3.6-1.1
				c1.9,0,3.4,0.6,4.6,1.7c1.1,1.2,1.8,2.8,1.9,4.8h-1.5c-0.4-3.4-2-5.1-5-5.1c-1.6,0-2.9,0.7-3.9,2c-1,1.4-1.4,3.2-1.4,5.6v2.5
				c0,2.3,0.5,4.2,1.4,5.5c0.9,1.4,2.2,2.1,3.8,2.1c1.6,0,2.8-0.4,3.6-1.3c0.8-0.9,1.3-2.1,1.5-3.8H259.9z"/>
		</g>
		<g>
			<path class="st1" d="M281.4,344.2h-6.2v18.6h-1.5v-18.6h-6.1v-1.4h13.8V344.2z"/>
		</g>
		<g>
			<path class="st1" d="M294.2,353.2h-8.4v8.2h9.7v1.4h-11.2v-20.1h11.1v1.4h-9.6v7.6h8.4V353.2z"/>
		</g>
		<g>
			<path class="st1" d="M308.9,357.9c0-1.1-0.3-2-1-2.6c-0.7-0.6-2-1.3-3.8-1.8c-1.9-0.6-3.2-1.2-4.1-1.9c-1.2-1-1.8-2.3-1.8-3.8
				c0-1.5,0.6-2.8,1.7-3.7c1.1-1,2.6-1.4,4.3-1.4c1.2,0,2.3,0.3,3.2,0.8c0.9,0.5,1.7,1.2,2.2,2.2c0.5,0.9,0.8,1.9,0.8,3.1h-1.5
				c0-1.4-0.4-2.5-1.3-3.3c-0.8-0.8-2-1.3-3.4-1.3c-1.4,0-2.5,0.3-3.3,1c-0.8,0.7-1.2,1.6-1.2,2.7c0,1,0.4,1.9,1.1,2.5
				c0.7,0.6,1.9,1.2,3.5,1.7c1.6,0.5,2.8,1,3.7,1.5c0.8,0.5,1.5,1.2,1.9,1.9c0.4,0.7,0.6,1.6,0.6,2.6c0,1.6-0.6,2.8-1.7,3.8
				s-2.6,1.4-4.5,1.4c-1.3,0-2.4-0.3-3.5-0.8c-1.1-0.5-1.9-1.2-2.4-2.1c-0.5-0.9-0.8-2-0.8-3.1h1.5c0,1.4,0.5,2.5,1.4,3.3
				c0.9,0.8,2.2,1.2,3.8,1.2c1.4,0,2.5-0.3,3.4-1S308.9,359.1,308.9,357.9z"/>
		</g>
		<g>
			<path class="st1" d="M325.8,344.2h-6.2v18.6h-1.5v-18.6H312v-1.4h13.8V344.2z"/>
		</g>
		<g>
			<path class="st1" d="M342.1,362.8h-1.5l-10.3-17.2v17.2h-1.5v-20.1h1.5l10.3,17.2v-17.2h1.5V362.8z"/>
		</g>
		<g>
			<path class="st1" d="M356.6,353.2h-8.4v8.2h9.7v1.4h-11.2v-20.1h11.1v1.4h-9.6v7.6h8.4V353.2z"/>
		</g>
		<g>
			<path class="st1" d="M373.5,344.2h-6.2v18.6h-1.5v-18.6h-6.1v-1.4h13.8V344.2z"/>
		</g>
	</g>
</g>
</svg>
